grf
version=1
nRows=12
nColumns=37
inDegrees=no
endheader
time	ground_force_1_vx	ground_force_1_vy	ground_force_1_vz	ground_force_1_px	ground_force_1_py	ground_force_1_pz	ground_moment_1_mx	ground_moment_1_my	ground_moment_1_mz	ground_force_2_vx	ground_force_2_vy	ground_force_2_vz	ground_force_2_px	ground_force_2_py	ground_force_2_pz	ground_moment_2_mx	ground_moment_2_my	ground_moment_2_mz	ground_force_3_vx	ground_force_3_vy	ground_force_3_vz	ground_force_3_px	ground_force_3_py	ground_force_3_pz	ground_moment_3_mx	ground_moment_3_my	ground_moment_3_mz	ground_force_4_vx	ground_force_4_vy	ground_force_4_vz	ground_force_4_px	ground_force_4_py	ground_force_4_pz	ground_moment_4_mx	ground_moment_4_my	ground_moment_4_mz
      0.00000000	      0.00000000	     -0.00000000	      0.00000000	      0.00000000	      0.00000000	      0.00000000	      0.00000000	      0.00000000	      0.00000000	      2.67631531	     57.22171783	   -389.55749512	   -373.34198991	  -1194.33563567	      0.00000000	      0.00000000	     -0.00000000	   1422.38993907	      2.81028945	    -62.01039530	   -422.33792114	   -385.72679839	   -716.80815129	      0.00000000	      0.00000000	     -0.00000000	  -2490.16386353	      0.00000000	     -0.00000000	      0.00000000	      0.00000000	      0.00000000	      0.00000000	      0.00000000	      0.00000000	      0.00000000
      0.01000000	      0.00000000	     -0.00000000	      0.00000000	      0.00000000	      0.00000000	      0.00000000	      0.00000000	      0.00000000	      0.00000000	      3.10475159	     57.56063843	   -388.95574951	   -373.48237084	  -1193.45419245	      0.00000000	      0.00000000	      0.00000000	   1346.45362419	      3.23698840	    -61.68310957	   -422.40512085	   -385.65714731	   -716.67761224	      0.00000000	      0.00000000	     -0.00000000	  -2585.99755477	      0.00000000	     -0.00000000	      0.00000000	      0.00000000	      0.00000000	      0.00000000	      0.00000000	      0.00000000	      0.00000000
      0.02000000	      0.00000000	     -0.00000000	      0.00000000	      0.00000000	      0.00000000	      0.00000000	      0.00000000	      0.00000000	      0.00000000	      2.82813668	     57.78307724	   -390.15853882	   -373.25084181	  -1192.88555912	      0.00000000	     -0.00000000	      0.00000000	   1196.56609322	      3.03363970	    -62.36381176	   -421.49481201	   -386.67017561	   -717.16939147	      0.00000000	     -0.00000000	     -0.00000000	  -2562.60919553	      0.00000000	     -0.00000000	      0.00000000	      0.00000000	      0.00000000	      0.00000000	      0.00000000	      0.00000000	      0.00000000
      0.03000000	      0.00000000	     -0.00000000	      0.00000000	      0.00000000	      0.00000000	      0.00000000	      0.00000000	      0.00000000	      0.00000000	      2.97065067	     58.01497269	   -389.55749512	   -372.09017894	  -1193.76664071	      0.00000000	      0.00000000	     -0.00000000	   1055.23450236	      3.16717726	    -62.02811460	   -421.07684326	   -385.97825281	   -718.29937313	      0.00000000	      0.00000000	     -0.00000000	  -2553.53299422	      0.00000000	     -0.00000000	      0.00000000	      0.00000000	      0.00000000	      0.00000000	      0.00000000	      0.00000000	      0.00000000
      0.04000000	      0.00000000	     -0.00000000	      0.00000000	      0.00000000	      0.00000000	      0.00000000	      0.00000000	      0.00000000	      0.00000000	      2.66731405	     57.60522079	   -387.04956055	   -371.68104557	  -1193.43887331	      0.00000000	      0.00000000	      0.00000000	   1180.24969078	      2.67906455	    -62.24028801	   -421.32125854	   -386.40668840	   -717.71733527	      0.00000000	      0.00000000	     -0.00000000	  -2490.10006534	      0.00000000	     -0.00000000	      0.00000000	      0.00000000	      0.00000000	      0.00000000	      0.00000000	      0.00000000	      0.00000000
      0.05000000	      0.00000000	     -0.00000000	      0.00000000	      0.00000000	      0.00000000	      0.00000000	      0.00000000	      0.00000000	      0.00000000	      2.38149405	     57.03440094	   -382.95468140	   -370.68440508	  -1193.69170180	      0.00000000	      0.00000000	      0.00000000	   1083.10296926	      2.22669893	    -62.11683674	   -422.12432861	   -386.49364632	   -717.81863724	      0.00000000	      0.00000000	     -0.00000000	  -2340.55585629	      0.00000000	     -0.00000000	      0.00000000	      0.00000000	      0.00000000	      0.00000000	      0.00000000	      0.00000000	      0.00000000
      0.06000000	      0.00000000	     -0.00000000	      0.00000000	      0.00000000	      0.00000000	      0.00000000	      0.00000000	      0.00000000	      0.00000000	      1.72240794	     56.69606400	   -378.60888672	   -370.56576617	  -1193.34731639	      0.00000000	     -0.00000000	      0.00000000	   1033.94962965	      1.70351387	    -62.62007919	   -422.92898560	   -386.34280081	   -717.23588438	      0.00000000	      0.00000000	     -0.00000000	  -2382.39414400	      0.00000000	     -0.00000000	      0.00000000	      0.00000000	      0.00000000	      0.00000000	      0.00000000	      0.00000000	      0.00000000
      0.07000000	      0.00000000	     -0.00000000	      0.00000000	      0.00000000	      0.00000000	      0.00000000	      0.00000000	      0.00000000	      0.00000000	      1.94423544	     56.12458420	   -380.19274902	   -368.47182199	  -1194.65908149	      0.00000000	      0.00000000	      0.00000000	    975.46858403	      1.88105848	    -62.41831224	   -424.18353271	   -385.94062933	   -717.24720612	      0.00000000	      0.00000000	     -0.00000000	  -2410.80038972	      0.00000000	     -0.00000000	      0.00000000	      0.00000000	      0.00000000	      0.00000000	      0.00000000	      0.00000000	      0.00000000
      0.08000000	      0.00000000	     -0.00000000	      0.00000000	      0.00000000	      0.00000000	      0.00000000	      0.00000000	      0.00000000	      0.00000000	      1.70425951	     55.71575546	   -375.54028320	   -369.96247724	  -1192.08911835	      0.00000000	      0.00000000	      0.00000000	    973.94751871	      1.71289037	    -62.94609466	   -425.05105591	   -386.21152328	   -717.45288132	      0.00000000	      0.00000000	     -0.00000000	  -2502.60012447	      0.00000000	     -0.00000000	      0.00000000	      0.00000000	      0.00000000	      0.00000000	      0.00000000	      0.00000000	      0.00000000
      0.09000000	      0.00000000	     -0.00000000	      0.00000000	      0.00000000	      0.00000000	      0.00000000	      0.00000000	      0.00000000	      0.00000000	      2.09438848	     54.99346161	   -375.95190430	   -368.91777188	  -1192.89435801	      0.00000000	     -0.00000000	      0.00000000	    916.45566749	      1.18084310	    -62.84253321	   -425.78387451	   -386.40549993	   -717.16717132	      0.00000000	      0.00000000	     -0.00000000	  -2388.07681981	      0.00000000	     -0.00000000	      0.00000000	      0.00000000	      0.00000000	      0.00000000	      0.00000000	      0.00000000	      0.00000000
      0.10000000	      0.00000000	     -0.00000000	      0.00000000	      0.00000000	      0.00000000	      0.00000000	      0.00000000	      0.00000000	      0.00000000	      1.24894714	     54.52904129	   -373.34838867	   -369.62829912	  -1190.91546100	      0.00000000	      0.00000000	      0.00000000	    953.41270687	      1.25120637	    -62.99180614	   -425.68875122	   -385.73282265	   -716.90344379	      0.00000000	      0.00000000	     -0.00000000	  -2474.09534565	      0.00000000	     -0.00000000	      0.00000000	      0.00000000	      0.00000000	      0.00000000	      0.00000000	      0.00000000	      0.00000000
      0.11000000	      0.00000000	     -0.00000000	      0.00000000	      0.00000000	      0.00000000	      0.00000000	      0.00000000	      0.00000000	      0.00000000	      0.00000000	     54.57614136	   -373.57321167	   -368.91967657	  -1191.75426303	      0.00000000	      0.00000000	      0.00000000	    829.28797930	      1.12526425	    -63.09881602	   -426.77334595	   -386.53550057	   -717.09522245	      0.00000000	      0.00000000	     -0.00000000	  -2420.91284545	      0.00000000	     -0.00000000	      0.00000000	      0.00000000	      0.00000000	      0.00000000	      0.00000000	      0.00000000	      0.00000000
